<svg xmlns="http://www.w3.org/2000/svg" viewBox="0 0 1200 760" role="img" aria-labelledby="title desc"><title id="title">Container loading proof visual</title><desc id="desc">Generated container loading scene with forklift, wrapped textile bales, and open shipping container.</desc><defs><linearGradient id="bg" x1="0" x2="1" y1="0" y2="1"><stop offset="0" stop-color="#06101a"/><stop offset="1" stop-color="#102234"/></linearGradient><linearGradient id="container" x1="0" x2="1"><stop offset="0" stop-color="#12314a"/><stop offset="1" stop-color="#091724"/></linearGradient><filter id="shadow"><feDropShadow dx="0" dy="18" stdDeviation="18" flood-opacity=".45"/></filter></defs><rect width="1200" height="760" fill="url(#bg)"/><path d="M0 575H1200V760H0Z" fill="#09131e"/><g opacity=".18" stroke="#d4af37"><path d="M0 575H1200M0 640H1200M0 705H1200"/><path d="M90 575L20 760M250 575L180 760M410 575L340 760M570 575L500 760M730 575L660 760M890 575L820 760M1050 575L980 760"/></g><g filter="url(#shadow)"><g transform="translate(560 182)"><path d="M0 0H520V335H0Z" fill="url(#container)" stroke="#244158" stroke-width="8"/><path d="M30 28H490V308H30Z" fill="#07111b"/><path d="M70 28V308M132 28V308M194 28V308M256 28V308M318 28V308M380 28V308M442 28V308" stroke="#244158" stroke-width="7" opacity=".72"/><path d="M32 65H488M32 132H488M32 199H488M32 266H488" stroke="#244158" stroke-width="4" opacity=".46"/></g><g transform="translate(112 430)"><rect x="0" y="48" width="275" height="70" rx="8" fill="#d4af37"/><rect x="58" y="0" width="108" height="76" rx="8" fill="#be8e24"/><rect x="78" y="18" width="50" height="32" fill="#142b3d"/><path d="M274 72H468" stroke="#d4af37" stroke-width="16" stroke-linecap="round"/><path d="M462 72V24" stroke="#d4af37" stroke-width="14" stroke-linecap="round"/><circle cx="56" cy="126" r="34" fill="#050c14" stroke="#36536b" stroke-width="10"/><circle cx="214" cy="126" r="34" fill="#050c14" stroke="#36536b" stroke-width="10"/></g><g transform="translate(455 366)"><rect width="180" height="112" rx="22" fill="#dbe6ed" opacity=".82"/><path d="M26 32 C78 2 126 13 158 42M22 82 C70 108 122 98 160 76" fill="none" stroke="#253646" stroke-width="10" opacity=".35"/><path d="M34 0V112M92 0V112M150 0V112M0 38H180M0 78H180" stroke="#fff" stroke-width="6" opacity=".7"/></g><g transform="translate(675 342)"><rect width="190" height="118" rx="22" fill="#dbe6ed" opacity=".82"/><path d="M28 34 C82 5 132 14 166 44M28 86 C78 108 138 100 169 78" fill="none" stroke="#253646" stroke-width="10" opacity=".35"/><path d="M38 0V118M98 0V118M158 0V118M0 40H190M0 82H190" stroke="#fff" stroke-width="6" opacity=".7"/></g></g><g transform="translate(195 236)"><circle cx="24" cy="24" r="24" fill="#d4af37"/><path d="M24 58V150M0 96H58M24 150L-10 220M24 150L62 220" stroke="#dbe6ed" stroke-width="16" stroke-linecap="round"/><rect x="-22" y="72" width="96" height="78" rx="16" fill="#1b3244"/></g><text x="70" y="690" fill="#d4af37" font-family="Inter,Arial" font-size="34" font-weight="800" letter-spacing="5">CONTAINER LOADING PHOTO</text></svg>