<svg xmlns="http://www.w3.org/2000/svg" viewBox="0 0 1200 760" role="img" aria-labelledby="title desc"><title id="title">Export documentation proof visual</title><desc id="desc">Generated export documentation example scene with invoice, packing list, stamp, textile swatches, and shipment folder.</desc><defs><linearGradient id="bg" x1="0" x2="1" y1="0" y2="1"><stop offset="0" stop-color="#06101a"/><stop offset="1" stop-color="#182838"/></linearGradient><filter id="shadow"><feDropShadow dx="0" dy="18" stdDeviation="18" flood-opacity=".42"/></filter></defs><rect width="1200" height="760" fill="url(#bg)"/><rect x="0" y="500" width="1200" height="260" fill="#0b1520"/><g opacity=".12" stroke="#d4af37"><path d="M0 112H1200M0 236H1200M0 360H1200M0 484H1200"/><path d="M150 0V760M350 0V760M550 0V760M750 0V760M950 0V760M1150 0V760"/></g><g filter="url(#shadow)"><rect x="120" y="130" width="335" height="465" rx="10" fill="#f3ead6" transform="rotate(-5 120 130)"/><rect x="180" y="175" width="210" height="22" fill="#24384a" opacity=".82" transform="rotate(-5 180 175)"/><path d="M170 235H392M170 276H390M170 317H405M170 358H382M170 399H400M170 440H370" stroke="#24384a" stroke-width="10" opacity=".56" transform="rotate(-5 170 235)"/><circle cx="348" cy="515" r="50" fill="none" stroke="#d4af37" stroke-width="12" opacity=".86"/><rect x="438" y="106" width="360" height="500" rx="10" fill="#fbf4e6"/><rect x="494" y="158" width="248" height="26" fill="#24384a" opacity=".86"/><path d="M492 230H744M492 274H734M492 318H754M492 362H724M492 406H750M492 450H704" stroke="#24384a" stroke-width="11" opacity=".58"/><rect x="536" y="500" width="170" height="44" rx="8" fill="#d4af37" opacity=".9"/><rect x="790" y="164" width="255" height="390" rx="12" fill="#d7e1ea" transform="rotate(6 790 164)"/><rect x="840" y="210" width="152" height="20" fill="#24384a" opacity=".78" transform="rotate(6 840 210)"/><path d="M830 270H1002M830 310H988M830 350H1010M830 390H974M830 430H1005" stroke="#24384a" stroke-width="9" opacity=".5" transform="rotate(6 830 270)"/><rect x="770" y="495" width="145" height="80" rx="12" fill="#1f5a48"/><rect x="930" y="498" width="145" height="80" rx="12" fill="#8a661f"/><rect x="850" y="585" width="160" height="44" rx="8" fill="#6c352e"/></g><g transform="translate(826 112)"><rect width="194" height="118" rx="12" fill="#09131e"/><rect x="20" y="20" width="154" height="78" rx="8" fill="#17384f"/><path d="M36 74 L72 42 L100 66 L122 48 L158 82" fill="none" stroke="#d4af37" stroke-width="8" stroke-linecap="round" stroke-linejoin="round"/></g><text x="70" y="690" fill="#d4af37" font-family="Inter,Arial" font-size="34" font-weight="800" letter-spacing="5">EXPORT DOCUMENTATION EXAMPLES</text></svg>