<svg xmlns="http://www.w3.org/2000/svg" viewBox="0 0 1200 760" role="img" aria-labelledby="title desc"><title id="title">Sample packing proof visual</title><desc id="desc">Generated warehouse packing proof scene with wrapped textile bales, labels, and inspection clipboard.</desc><defs><linearGradient id="bg" x1="0" x2="1" y1="0" y2="1"><stop offset="0" stop-color="#07111b"/><stop offset="1" stop-color="#1b2632"/></linearGradient><linearGradient id="wrap" x1="0" x2="1"><stop offset="0" stop-color="#dfe7ee" stop-opacity=".78"/><stop offset=".45" stop-color="#ffffff" stop-opacity=".38"/><stop offset="1" stop-color="#9fb1bf" stop-opacity=".64"/></linearGradient><filter id="shadow"><feDropShadow dx="0" dy="18" stdDeviation="18" flood-opacity=".45"/></filter></defs><rect width="1200" height="760" fill="url(#bg)"/><path d="M0 520 C250 480 390 548 610 510 C800 478 990 522 1200 482 L1200 760 L0 760Z" fill="#0b1824"/><g opacity=".18" stroke="#d4af37"><path d="M0 164H1200M0 318H1200M0 472H1200"/><path d="M110 0V760M310 0V760M510 0V760M710 0V760M910 0V760M1110 0V760"/></g><g filter="url(#shadow)"><g transform="translate(128 318)"><rect width="260" height="150" rx="28" fill="url(#wrap)"/><path d="M18 36 C70 0 158 8 240 46M25 102 C86 130 166 120 242 92" fill="none" stroke="#263746" stroke-width="12" opacity=".32"/><path d="M42 0V150M128 0V150M218 0V150M0 48H260M0 102H260" stroke="#edf4fa" stroke-width="8" opacity=".7"/><rect x="164" y="56" width="72" height="46" rx="4" fill="#f5f0df"/><path d="M174 69H224M174 82H215M174 95H228" stroke="#1f2d3a" stroke-width="3"/></g><g transform="translate(412 262)"><rect width="330" height="190" rx="32" fill="url(#wrap)"/><path d="M26 40 C110 4 206 12 304 58M35 128 C118 166 218 150 306 112" fill="none" stroke="#263746" stroke-width="14" opacity=".32"/><path d="M58 0V190M170 0V190M278 0V190M0 62H330M0 132H330" stroke="#edf4fa" stroke-width="9" opacity=".72"/><rect x="228" y="76" width="76" height="50" rx="4" fill="#f5f0df"/><path d="M240 90H290M240 104H281M240 118H294" stroke="#1f2d3a" stroke-width="3"/></g><g transform="translate(764 342)"><rect width="285" height="162" rx="30" fill="url(#wrap)"/><path d="M22 44 C98 8 186 16 262 58M28 112 C105 140 194 132 265 98" fill="none" stroke="#263746" stroke-width="13" opacity=".32"/><path d="M46 0V162M142 0V162M238 0V162M0 55H285M0 112H285" stroke="#edf4fa" stroke-width="8" opacity=".72"/><rect x="190" y="66" width="70" height="44" rx="4" fill="#f5f0df"/><path d="M201 78H248M201 91H242M201 103H252" stroke="#1f2d3a" stroke-width="3"/></g></g><g transform="translate(128 145)"><rect width="240" height="310" rx="12" fill="#09131e" opacity=".78"/><rect x="30" y="32" width="180" height="230" rx="8" fill="#f5f0df"/><path d="M55 70H188M55 105H170M55 140H195M55 175H178M55 210H196" stroke="#253646" stroke-width="8"/><circle cx="76" cy="272" r="18" fill="#d4af37"/><path d="M250 174 C320 198 352 270 326 340" fill="none" stroke="#1d3142" stroke-width="24" stroke-linecap="round"/></g><text x="70" y="690" fill="#d4af37" font-family="Inter,Arial" font-size="34" font-weight="800" letter-spacing="5">SAMPLE PACKING PHOTO</text></svg>